<?xml version="1.0" encoding="UTF-8"?>
<svg id="Layer_1" data-name="Layer 1" xmlns="http://www.w3.org/2000/svg" viewBox="0 0 1843.2 686.01">
  <defs>
    <style>
      .cls-1 {
        fill: #fff;
      }

      .cls-1, .cls-2 {
        stroke-width: 0px;
      }

      .cls-2 {
        fill: none;
      }
    </style>
  </defs>
  <rect class="cls-2" y="0" width="1843.2" height="686.01"/>
  <g>
    <g>
      <path class="cls-1" d="M983.38,461.63c0,7.56-5.47,12.13-14.52,12.13h-8.6v10.54h-4.97v-34.81h13.58c9.05,0,14.52,4.58,14.52,12.13ZM978.41,461.63c0-4.97-3.33-7.81-9.7-7.81h-8.45v15.62h8.45c6.37,0,9.7-2.83,9.7-7.81Z"/>
      <path class="cls-1" d="M1030.58,449.49v34.81h-4.97v-15.52h-19.99v15.52h-4.97v-34.81h4.97v14.97h19.99v-14.97h4.97Z"/>
      <path class="cls-1" d="M1048.13,466.9c0-10.19,7.86-17.8,18.55-17.8s18.45,7.56,18.45,17.8-7.86,17.8-18.45,17.8-18.55-7.61-18.55-17.8ZM1080.16,466.9c0-7.71-5.77-13.38-13.48-13.38s-13.58,5.67-13.58,13.38,5.77,13.38,13.58,13.38,13.48-5.67,13.48-13.38Z"/>
      <path class="cls-1" d="M1109.1,453.82h-11.94v-4.33h28.79v4.33h-11.94v30.49h-4.92v-30.49Z"/>
      <path class="cls-1" d="M1138,466.9c0-10.19,7.86-17.8,18.55-17.8s18.45,7.56,18.45,17.8-7.86,17.8-18.45,17.8-18.55-7.61-18.55-17.8ZM1170.02,466.9c0-7.71-5.77-13.38-13.48-13.38s-13.58,5.67-13.58,13.38,5.77,13.38,13.58,13.38,13.48-5.67,13.48-13.38Z"/>
      <path class="cls-1" d="M1216.67,466.7h4.77v13.58c-3.48,2.93-8.31,4.43-13.18,4.43-10.69,0-18.55-7.51-18.55-17.8s7.86-17.8,18.65-17.8c5.52,0,10.19,1.84,13.38,5.37l-3.08,3.08c-2.88-2.79-6.17-4.03-10.1-4.03-8.06,0-13.88,5.62-13.88,13.38s5.82,13.38,13.83,13.38c2.93,0,5.67-.65,8.16-2.24v-11.34Z"/>
      <path class="cls-1" d="M1264.16,484.31l-7.51-10.69c-.7.05-1.44.1-2.19.1h-8.6v10.59h-4.97v-34.81h13.58c9.05,0,14.52,4.58,14.52,12.13,0,5.37-2.78,9.25-7.66,10.99l8.26,11.69h-5.42ZM1264.01,461.63c0-4.97-3.33-7.81-9.7-7.81h-8.45v15.67h8.45c6.37,0,9.7-2.88,9.7-7.86Z"/>
      <path class="cls-1" d="M1309.17,475.6h-18.5l-3.83,8.7h-5.12l15.76-34.81h4.92l15.81,34.81h-5.22l-3.83-8.7ZM1307.43,471.62l-7.51-17.06-7.51,17.06h15.02Z"/>
      <path class="cls-1" d="M1361.44,461.63c0,7.56-5.47,12.13-14.52,12.13h-8.6v10.54h-4.97v-34.81h13.58c9.05,0,14.52,4.58,14.52,12.13ZM1356.46,461.63c0-4.97-3.33-7.81-9.7-7.81h-8.45v15.62h8.45c6.37,0,9.7-2.83,9.7-7.81Z"/>
      <path class="cls-1" d="M1408.63,449.49v34.81h-4.97v-15.52h-19.99v15.52h-4.97v-34.81h4.97v14.97h19.99v-14.97h4.97Z"/>
      <path class="cls-1" d="M1442.35,472.27v12.03h-4.92v-12.13l-13.83-22.68h5.32l11.14,18.35,11.19-18.35h4.92l-13.83,22.78Z"/>
    </g>
    <path id="path361" class="cls-1" d="M153.87,685.23c-1.56-1.56-1.04-4.1,1.42-6.9,3.59-4.09,21.76-20.24,37.09-32.97,23.11-19.21,39.08-33.96,57.1-52.76,28.29-29.52,50.89-56.33,69.93-82.96,7.22-10.1,22.04-32.51,21.71-32.84-.14-.14-3.82.96-8.17,2.45-67.14,22.96-143.23,33.24-196.4,26.53-31.21-3.94-57.38-13.36-81.88-29.48C21.66,454.59,3.94,427.45.39,393.15c-.78-7.55-.33-25.37.83-32.64,4.9-30.77,17.77-58.92,39.27-85.84,46.37-58.07,134.33-108.18,216.22-123.18,42.12-7.72,80.59-6.36,107.93,3.8,6.55,2.43,16.13,7.22,21.82,10.9,21.92,14.18,38.23,38.07,45.47,66.63,1.74,6.86,1.77,6.91,3.26,6.85,2.13-.08,57.37-18.95,61.32-20.94,8.66-4.37,39.7-23.13,59.85-36.16,16.27-10.53,38.81-25.95,41.18-28.17,1.53-1.43,2.75-3.69,5.33-9.84,30.64-72.94,67.06-123.66,99.99-139.29,10.61-5.04,20.27-5.11,24.74-.2,2.63,2.89,3.12,4.63,3.08,10.82-.05,6.88-1.19,10.83-5.75,19.94-8.09,16.15-19.72,31.21-38.82,50.26-18.63,18.58-38.77,35.81-63.05,53.93-4.83,3.6-9.04,6.93-9.36,7.4-.58.85-12.49,30.75-14.36,36.05-.54,1.52-.85,2.88-.71,3.03.41.41,65.52-19.8,66.2-20.55.33-.37,8.04-10.59,17.12-22.73,24.41-32.62,25.67-34.02,28.29-31.65.59.54,1.08,1.5,1.08,2.15,0,2.63-7.06,13.77-22.57,35.61-4.57,6.43-8.07,11.77-7.78,11.86s1.31-.06,2.28-.34c.97-.28,11.45-3.39,23.29-6.91,73.87-21.96,140.11-39.7,188.83-50.56,102.22-22.8,177.6-32.99,243.97-33,46.19,0,76.94,4.29,105.25,14.68,7.34,2.7,22.26,10.18,28.73,14.42,15.09,9.88,29.18,24.03,37.88,38.03,6.17,9.94,10.85,21.47,13.26,32.66,1.08,5.02,1.23,7.16,1.21,17.17,0,9.76-.19,12.19-1.19,16.65-4.41,19.8-14.39,37.05-30.93,53.53-30.99,30.86-78.7,50.84-136.14,57-9.42,1.01-37.28.85-47.22-.27-30.58-3.45-57.62-12.73-76.54-26.27-2.56-1.83-4.8-3.33-4.99-3.33-.42,0-29.81,39.29-40.95,54.76-17.9,24.85-43.79,62.64-43.27,63.16.13.13,22.2-.03,49.05-.36,26.84-.33,69.86-.84,95.59-1.13,49.86-.56,98.2-1.28,141.43-2.12,77.57-1.5,111.16-1.73,207.36-1.42,95.63.3,148.97.94,159.69,1.91,5.37.48,7.64,1.54,7.96,3.71.13.86.43,1.08,1.15.86,1.22-.39,1.9.59,1.09,1.57-1.16,1.4-18.47,12.94-33.51,22.34-8.33,5.21-18.69,11.85-23.01,14.76-41.43,27.86-70.57,59.8-70.57,77.35,0,5.58,2.34,8.54,8.24,10.41,3.17,1,4.91,1.18,11.7,1.17,48.29-.08,149.98-44.15,235.8-102.21,19.45-13.15,37.48-26.44,52.08-38.36,10.79-8.81,16.67-14.01,29.48-26.04l11.11-10.43-12.97-.35c-7.14-.19-19.56-.73-27.6-1.19-19.57-1.12-38.52-1.78-70.45-2.44-68.02-1.41-80.51-3.11-86.19-11.69-2.72-4.12-2.25-11.42,1.18-18.19.71-1.4,1.13-2.55.93-2.55-.52,0-9.88,5.47-29.43,17.18-18.21,10.91-32.55,18.31-38.8,20.02-5.85,1.6-11.11,1.48-14.44-.33-2.87-1.56-5.39-4.85-6.42-8.39-.35-1.19-.62-4.37-.62-7.07,0-3.44-.16-4.78-.56-4.48-.32.24-6.56,4.99-13.87,10.55s-14.22,10.75-15.36,11.52c-2.61,1.77-4.76,1.8-6.46.1-2.47-2.47-1.6-4.94,4.7-13.37,9.37-12.54,19.66-24.55,39.78-46.44,14.87-16.18,17.48-19.09,16.43-18.3-.44.33-5.1,3.82-10.37,7.77-23.22,17.41-44.74,31.38-67.9,44.06l-6.22,3.41-.3,2.39c-.75,5.9-2.39,13.81-3.45,16.61-2.79,7.39-8.12,12.71-14.79,14.77-4.48,1.38-12.45,1.4-19.03.04-7.56-1.56-11.39-4.02-11.39-7.31,0-3.63,3.34-5.92,25.08-17.14,9.17-4.73,10.5-5.58,10.74-6.85,2.27-11.85,3.33-16.58,4.61-20.57.84-2.62,1.44-4.85,1.33-4.97-.11-.11-1.6.74-3.3,1.89-5.95,4.02-46.75,29.77-53.18,33.56-11.63,6.86-16.41,8.48-19.79,6.73-4.72-2.44-3.98-9.35,2.1-19.46,1.45-2.42,2.58-4.45,2.51-4.52-.08-.07-2.41,1.55-5.19,3.6-8.45,6.23-20.65,14.16-25.39,16.51-3.45,1.71-5.25,2.27-7.82,2.43-3.07.2-3.47.09-5.03-1.31-3.29-2.95-3.09-8.56.55-14.92.89-1.55,1.45-2.82,1.24-2.82s-3.87,1.29-8.15,2.86c-13.2,4.85-21.38,6.91-27.54,6.95-4.71.03-6.1-.57-8.38-3.64-.92-1.24-1.1-2.25-1.1-6.44,0-3.23-.19-4.82-.53-4.56-4.38,3.34-21.54,16.73-25.71,20.08-4.74,3.8-5.79,4.42-7.54,4.42-3.34,0-5.25-3.44-3.63-6.55.81-1.55,3.63-4.9,15.34-18.18,13.58-15.4,26.06-29.92,26.06-30.33,0-.19-1.26.79-2.79,2.18-14.17,12.8-32.58,28.36-42.36,35.79-13.44,10.2-20.89,14.39-26.41,14.83-3.32.27-3.4.24-5.32-1.68l-1.95-1.95.24-4.12c.19-3.31.6-4.88,2.09-7.96,1.02-2.11,1.78-3.84,1.69-3.84s-3.21,2.14-6.94,4.76c-12.88,9.05-21.11,13.31-25.73,13.31-1.75,0-2.51-.35-3.97-1.81-1.62-1.62-1.81-2.11-1.81-4.76,0-5.98,5.99-14.92,18.05-26.93,8.67-8.63,15.21-13.6,23.16-17.55,10.46-5.21,17.26-5.6,22.04-1.28,2.76,2.5,3.37,4.23,3.12,8.85-.35,6.48-2.24,9.5-15.04,24.07-7.74,8.81-11.53,14.92-9.88,15.94,1,.62,7.49-1.69,11.95-4.25,15.5-8.9,46.31-34.64,75.73-63.25,3.62-3.52,16.23-17.32,28.03-30.67,11.8-13.35,22.11-24.79,22.91-25.42,2.61-2.06,6.02-.1,6.02,3.46,0,2.72-4.17,8.51-17.76,24.7-8.21,9.77-46.92,54.84-55.27,64.33-8.22,9.35-8.14,9.26-7.26,8.75,2.9-1.66,9.58-7.06,14.18-11.46,6.83-6.53,15.96-12.71,18.78-12.71,2.39,0,3.72,1.29,3.72,3.61,0,1.82.41,1.44-8.84,8.31-10.16,7.55-16.19,15.59-16.35,21.78l-.07,2.73,4.25-.1c5.49-.13,12.17-1.53,26.4-5.54l11.51-3.24,2.72-3.36c4.23-5.21,12.54-13.29,17.55-17.06,10.54-7.92,21.17-10.95,27.4-7.82,3.62,1.82,5.33,4.19,6.36,8.84l.33,1.51,2.11-1.9c2.55-2.3,5.03-2.57,6.74-.71,2.97,3.24,1.67,6.19-7.32,16.62-12.06,13.98-19.11,23.36-19.11,25.43,0,.68.38.7,2.79.13,8.45-2.01,25.28-11.37,49.85-27.72,16.17-10.76,20.99-14.68,24.53-19.93,3.94-5.83,6.34-7.95,9.05-7.95,3.99,0,5.39,3.48,2.79,6.94-2.29,3.05-5.46,9.78-6.81,14.45-1.41,4.85-3.19,14.7-2.9,16.04.14.65,3.16-.86,12.94-6.49,23.75-13.66,39.99-24.16,60.08-38.84q18.95-13.84,51.02-46.86c13.99-14.41,23.46-23.44,26.84-25.6,2.93-1.87,4.97-1.93,6.7-.21,2.46,2.46,1.98,3.51-6.35,13.85-17.82,22.11-45.85,52.48-84.46,91.51-10.45,10.57-19.01,19.37-19.01,19.56,0,.47,11.98-8.4,14.69-10.88,1.21-1.1,2.94-2.39,3.84-2.85.9-.47,8.53-5.82,16.94-11.91,16.06-11.6,25.29-17.98,28.21-19.46,1.63-.83,1.76-.83,2.09.03.25.65-.33,1.53-2.04,3.08-5.39,4.87-21.62,17.58-30.68,24.01l-9.67,6.86.31,1.76c.17.97-.22,4.93-.86,8.81-1.31,7.86-1.13,10.36.86,12.35,1.12,1.12,1.76,1.27,5.33,1.27,9.6,0,25.98-7.76,58.19-27.55,14.28-8.77,20.13-12.82,24.62-17.03,6.94-6.5,10.7-9.13,13.08-9.13,2.88,0,5.37,2.58,5.37,5.58,0,2.4-1.85,5.15-8.79,13.05-10.39,11.82-14.07,17.01-14.07,19.85,0,3.61,8.74,7.16,22.98,9.34,23.68,3.61,67.51,5.88,113.93,5.9,13.16,0,31.09.25,39.84.54l15.92.53,2.08-1.37c3.13-2.07,5.31-2.26,6.99-.58,2.64,2.64,1.81,4.31-7.16,14.44-6.64,7.51-24,24.55-31.88,31.31-61.72,52.94-156.62,107.59-228.62,131.66-30.87,10.32-54,14.87-72.24,14.2-14.47-.53-22.3-3.97-25.93-11.4-1.2-2.44-1.45-3.67-1.44-7.01,0-5.13,1.17-9.08,4.55-15.58,7.6-14.59,26.03-33.79,51.1-53.24,14.41-11.18,38.55-27.36,60.4-40.48,5.39-3.24,9.89-6.16,10-6.5.55-1.64-16.17-2.2-85.19-2.86-74.56-.72-211.62-.32-273.55.79-25,.45-70.7,1.18-101.55,1.63-100.71,1.46-178.95,2.84-192.42,3.38l-8.72.35-13.52,20.74c-20.12,30.86-35.08,51.13-40.44,54.77-3.77,2.56-6.83,1.1-6.66-3.19.1-2.64,5.11-15.78,8-21,2.49-4.5,11.43-18.03,23.55-35.62,5.33-7.75,9.83-14.42,9.98-14.82.31-.8,1.06-.81-41.89.77-33.49,1.23-83.99,3.84-133.45,6.91-22.15,1.37-56.44,3.85-56.65,4.09-.07.08-1.98,3.61-4.24,7.85-10.12,18.91-23.72,41.44-33.33,55.21-16.34,23.4-28.58,34.72-35.19,32.54-4.13-1.36-5.95-5.33-5.47-11.94.89-12.42,9.31-35.08,23.6-63.54,4.18-8.31,7.48-15.23,7.34-15.37-.14-.14-5.1.15-11.02.65-35.49,2.98-48.89,3.18-50.46.77-.88-1.34-.22-3.29,1.42-4.24,2.14-1.25,16.28-5,22.59-6,6.18-.98,18.34-2.14,33.46-3.19,7.73-.54,11.59-1.01,12.01-1.48.34-.38,3.68-5.95,7.43-12.38,8.08-13.86,21.05-35.02,35.82-58.45,5.89-9.34,10.71-17.42,10.71-17.96s.93-1.99,2.07-3.22c1.73-1.88,25-37.71,27.18-41.86.67-1.27.65-1.29-.32-.53-.56.44-5.08,4.4-10.06,8.8-34.85,30.85-56.55,48.12-70.98,56.49-20.41,11.84-34.72,10.27-39.55-4.31-.29-.88-.64-.79-3.91.93-5.47,2.87-11.28,7.87-26.85,23.04-15.78,15.38-21.75,20.49-27.19,23.25-4.1,2.08-5.46,2.25-8.11.99-7.79-3.7-3.24-22.49,13.39-55.22,19.18-37.77,56.6-97.52,93.66-149.56,3.6-5.06,6.55-9.44,6.55-9.74s-.42-.41-.93-.25-12.89,3.99-27.51,8.51c-14.62,4.52-28.36,8.77-30.54,9.46l-3.95,1.24-7.53,18.86c-26.44,66.24-50.56,112.11-76.29,145.14-36.6,46.98-88.75,85.75-149.42,111.08l-6.67,2.78-5.02,8.07c-12.59,20.25-28.79,43.52-42.82,61.5-25.1,32.18-62.43,73.01-96.78,105.87-29.83,28.53-35.39,32.88-48.46,37.92-5.36,2.07-7.61,2.33-8.89,1.05h0ZM626.45,505.9c11.38-9.25,29.16-34.22,46.43-65.21,6.02-10.8,9.35-17.28,9.05-17.58-.11-.11-5.33.28-11.6.88-9.26.88-11.52,1.25-12.08,1.99-.91,1.2-7.45,13.26-14.18,26.16-12.85,24.64-23.32,48.66-24.53,56.28l-.37,2.31,1.8-.92c.99-.5,3.46-2.26,5.48-3.9h0ZM187.06,492.52c52.29-3.2,107.72-15.25,156.29-33.97,5.39-2.08,10.34-4.13,10.98-4.55,2.04-1.34,11.44-18.57,25.66-47.07,29.76-59.63,44.13-102.71,45.62-136.78.19-4.31.18-7.84-.01-7.84s-5.16,2.41-11.04,5.35c-31.07,15.55-59.5,25.91-86.67,31.58-20.4,4.26-35.34,4.42-45.38.5-2.97-1.16-5.58-3.26-5.58-4.49,0-1.76,1.93-3.21,4.14-3.11,1.24.06,3-.43,4.74-1.33,1.52-.78,10.85-4.05,20.74-7.28,37.71-12.29,116.51-39.07,117.36-39.88.61-.58-.74-8-2.67-14.7-3.5-12.17-9.54-25.4-16.17-35.4-6.55-9.88-17.1-19.85-27.91-26.36-13.44-8.1-29.11-13.11-49.45-15.82-9.99-1.33-38.18-1.34-49.98-.02-68.65,7.67-140.11,38.6-195.66,84.67-10.06,8.35-29.13,27.65-36.73,37.19-10.63,13.34-18.5,25.7-24.72,38.81-10.5,22.13-16.19,47.74-15.21,68.38,1.71,35.99,16.89,61.74,49.01,83.15,24.73,16.48,53.06,25.86,86.66,28.71,9.91.84,34.31.98,45.99.26h0ZM381.56,441.56c57.76-28.95,102.77-68.09,136.73-118.89,16.2-24.23,33.77-57.1,48.77-91.2,6.03-13.7,14-33.12,13.72-33.41-.16-.16-1.9.21-3.87.83-12.59,3.96-56.17,17.97-69.61,22.39l-16.05,5.28-11.33,6.37c-11.96,6.72-28.15,15.57-37.91,20.72l-5.85,3.08-.38,9.3c-.89,21.86-4.46,39.37-13.7,66.99-5.09,15.22-10.96,30.31-17.68,45.46-7.22,16.26-23.12,47.89-32.68,65-1.02,1.83-1.58,3.32-1.24,3.32s5.32-2.36,11.08-5.24ZM682.8,412.43l4.72-.33,2.26-4.84c7.54-16.19,14.38-37.6,16.44-51.49.94-6.35,1.11-12.87.31-12.38-1.1.68-39.49,65.76-40.74,69.07-.37.97-.12.99,5.95.66,3.48-.19,8.46-.5,11.06-.68h0ZM726.99,410.38c42.07-1.88,129.88-5.24,158.71-6.08,10.09-.29,23.16-.68,29.05-.87l10.7-.33,6.57-9.64c25.89-37.97,54.01-76.77,78.23-107.95,4.06-5.23,7.51-9.82,7.65-10.2s-.95-2.16-2.43-3.94c-17.35-20.85-19.58-44.81-6.16-66.19,11.77-18.74,35.32-36.9,71.77-55.32,20.21-10.21,56.46-25.77,60.05-25.77,2.44,0,5.08,2.36,5.08,4.54,0,3.86-3.67,8.84-61.44,83.19-21.93,28.22-41.61,53.58-43.75,56.35l-3.89,5.04,1.49,1.19c2.29,1.83,10.68,6.35,16.66,8.98,14.2,6.25,30.04,10.3,49.99,12.79,10.76,1.34,40.71,1.35,52.64.02,51.21-5.73,95.42-23.19,124.85-49.3,12.39-11,22.76-25.98,27.22-39.32,3.16-9.45,4.44-22,3.24-31.72-1.76-14.28-7.91-29.01-17.47-41.92-4.3-5.79-14.26-16.14-20.07-20.84-33.35-26.98-85.13-38.57-162.16-36.28-89,2.64-192.13,21.33-328.15,59.47-34.79,9.75-108.19,31.35-109.99,32.36-2.03,1.13-37.4,52.67-57.92,84.39-41.88,64.72-67.36,111.57-69.2,127.19-.42,3.56.31,3.91,4.15,1.98,6.35-3.18,15.51-10.86,32.62-27.36,11.08-10.69,15.98-14.81,21.47-18.08l3.62-2.15.64-4.64c2.64-19.02,18.76-41.8,35.67-50.37,4.07-2.06,9.53-2.44,12.61-.86,5.3,2.7,6.78,9.15,3.83,16.68-2.12,5.41-7.78,13.08-14.81,20.08-7.07,7.04-12.17,10.95-19.97,15.33-7.07,3.96-6.92,3.82-6.87,6.81.09,5.32,2.79,7.64,8.92,7.64,11.78,0,30.89-11.5,61.49-37,16.67-13.89,40.64-35.09,48.89-43.25,1.94-1.92,5.69-7.18,10.65-14.92,15.01-23.49,22.71-35.16,39.26-59.55,23.82-35.11,27.68-40.37,34.91-47.61,4.4-4.41,8.81-7.15,11.51-7.15,2.09,0,4.61,2.33,5.05,4.67,1.1,5.88-5.14,19.81-15.66,34.94-11.72,16.85-31.22,40.06-52.72,62.74-8.78,9.26-8.87,9.39-19.95,27.91-4.63,7.75-13.89,23-20.58,33.9-12.08,19.69-13.07,21.4-12.42,21.4.94,0,10.23-3.87,19.71-8.22,5.85-2.68,12.03-5.45,13.74-6.15,2.68-1.1,3.6-1.9,6.72-5.81,5.11-6.4,14.93-15.79,19.95-19.07,6.66-4.36,12.49-5.78,16.61-4.06,4.18,1.75,5.96,4.83,6.39,11.07l.29,4.27,5.9-6.18c6.31-6.61,7.92-7.57,10.38-6.19,1.76.98,2.86,3.29,2.45,5.13-.18.79-1.98,3.72-4.02,6.49-15.07,20.59-23.39,36.11-23.39,43.63,0,1.98.09,2.1,1.61,2.1,2.22,0,6.97-2.5,12.28-6.46,9.18-6.85,30.8-29.7,45.33-47.92,3.33-4.17,6.46-7.93,6.96-8.35,1.6-1.33,4.51-.96,5.99.77,1.1,1.28,1.27,1.92,1.05,3.9-.5,4.47-7.77,17.33-18.08,32-2.78,3.95-4.95,7.28-4.83,7.41.12.13,5.9-5.39,12.84-12.26,16.71-16.54,26.61-25.09,37-31.92,5.41-3.56,7.29-3.9,9.81-1.77,4.37,3.67,2.19,10.1-11.22,33.09-8.51,14.59-10.18,17.69-9.52,17.69.73,0,12.63-6.95,20.04-11.71,3.8-2.44,13.49-8.87,21.52-14.29,19.32-13.03,24.45-16.15,25.35-15.4.38.32.52.89.31,1.27-1.14,2.01-41.26,32.36-54.03,40.88-13.4,8.94-17.67,10.79-21.17,9.13-5.58-2.65-4.77-9.79,2.88-25.47,3.98-8.15,5.56-10.93,11.2-19.65,2.04-3.15,3.56-5.88,3.38-6.06-.39-.39-4.83,2.49-10.71,6.95-8.13,6.17-16.58,14.06-33.12,30.94-9.15,9.34-17.51,17.63-18.57,18.44-2.36,1.78-4.51,1.88-6.03.27-.94-1-1.09-1.67-.9-4.1.19-2.36,1.15-4.71,5.1-12.47l4.87-9.56-10.24,10.36c-15.07,15.26-22.17,20.5-28.49,21.06-2.55.22-3.3.07-4.87-.99-2.99-2.02-4-4.66-3.92-10.28.07-5.28,1.61-11.37,4.46-17.65.88-1.94,1.48-3.64,1.34-3.78-.14-.14-1.77,1.15-3.62,2.88-25.88,24.08-32.89,29.47-39.33,30.29-4.4.56-7.84-2.85-7.84-7.77,0-4.07,1.43-8.42,5.3-16.18,2.04-4.08,3.61-7.51,3.48-7.64-.12-.12-4.96,2.41-10.75,5.63-10.52,5.84-18.21,9.29-22.23,9.98-4.41.76-4.52.96-4.53,8.9,0,3.87-.36,9.5-.79,12.51-2.24,15.74-8.7,37.05-16.53,54.49l-2.87,6.39,8.1-.36c4.46-.2,16-.71,25.65-1.14h0ZM1266.18,244.19c-2.79-2.2-3.62-5.38-2.36-9.05.34-.99,2.1-4.32,3.91-7.39,7.27-12.35,9.07-16.23,11.16-24.04,2.04-7.63,2.66-14.74,1.91-22.1-1.96-19.35-8.05-33.09-19.97-45.1-8.07-8.12-16.34-13.82-29.95-20.64-13.56-6.79-24.39-10.37-35.73-11.8-6.42-.81-8.1-1.32-7.22-2.18.23-.22,3.44-.37,7.14-.33,14.16.17,29.95,4.86,48.73,14.46,20.73,10.61,34.14,23.53,42.82,41.29,11.93,24.4,12.52,45.35,1.87,66.99-5.31,10.79-10.75,18.45-14.31,20.14-2.6,1.24-6.24,1.12-7.98-.24h0ZM1458.06,358.8c3.61-1.01,6.42-3.05,8.31-6.01,1.56-2.45,3.92-9.16,3.57-10.13-.18-.5-13.7,6.69-20.12,10.7-4.21,2.63-7.44,5.13-7.44,5.74,0,1.17,11.21.95,15.68-.3h0ZM1378.93,340.68c5.83-2.87,17.03-10.14,26.34-17.09,7.07-5.28,7.66-6.06,7.91-10.24.22-3.76.15-3.88-2.02-3.47-3.75.7-9.6,4.3-17.17,10.57-5.13,4.24-18.54,17.5-21.27,21.04l-1.82,2.35,1.57-.38c.87-.21,3.77-1.46,6.45-2.78h0ZM1225.85,338.13c8.38-4.22,18.56-11.4,31.71-22.35,3.96-3.3,7.45-5.79,8.36-5.97,1.5-.3,1.57-.43,1.42-2.77l-.16-2.45-2.55.09c-3.52.12-9.82,3.35-17.12,8.76-8.2,6.08-29.04,27.04-26.88,27.04.32,0,2.68-1.05,5.23-2.34h0ZM757.36,334.02c2.3-1.5,5.74-3.95,7.64-5.45,4.72-3.72,18.8-16.16,25.14-22.21,5.08-4.85,5.22-5.05,5.77-8.16.79-4.47.41-10.12-.77-11.29-.89-.88-1.1-.84-4.5.9-8.89,4.56-28.83,28.29-36.64,43.59-1.26,2.47-2.29,4.68-2.29,4.92,0,.97,1.68.29,5.65-2.29ZM628.57,324.8c10.62-6.97,18.79-15.77,23.27-25.02,2.3-4.76,3.29-9.82,1.92-9.82-1,0-4.07,2.07-7.77,5.22-6.88,5.87-17.91,21.24-21.54,30-1.1,2.66-.43,2.6,4.12-.38h0ZM314.4,294.74c19.47-2.17,45.73-9.17,68.31-18.19,14.35-5.74,41.93-18.65,42.79-20.04.54-.87-.33-7.48-.99-7.48-1.35,0-132.17,44.83-132.17,45.29,0,.2.66.46,1.46.58,3.01.46,15.99.35,20.6-.16h0ZM1037.08,251.28c19.76-24.83,59.73-73.78,84.33-103.28,5.73-6.87,10.19-12.57,9.92-12.67-1.31-.45-32.96,12.74-46.78,19.5-46.85,22.92-72.06,47.38-74.67,72.46-.67,6.39,1.21,15.31,4.63,22,2.52,4.93,10.35,15.15,11.61,15.15.27,0,5.21-5.92,10.97-13.16h0ZM449.4,244.7c14.58-7.63,18-9.53,17.71-9.82-.11-.11-7.41,2.22-16.24,5.16l-16.05,5.35v2.3c0,2.32.39,3.99.94,3.99.16,0,6.3-3.14,13.63-6.98h0ZM793.43,209.68c21.36-24.79,35.1-44.6,40.74-58.75,1.83-4.58,2.61-8.77,1.63-8.77-2.04,0-11.75,11.38-19.07,22.33-3.95,5.92-38.19,60.19-38.92,61.7-.91,1.87,6.81-6.29,15.61-16.51ZM530.19,208.37c7.65-2.48,22.74-7.26,33.54-10.63,10.8-3.37,19.83-6.43,20.06-6.8.81-1.29,12.17-30.35,12.02-30.76-.08-.23-5.53,3.29-12.11,7.82-15.43,10.63-40.19,26.83-55.63,36.39-6.69,4.15-12.39,7.75-12.67,8.01-1.05.98,1.22.36,14.78-4.03ZM627.3,133.04c30.81-23.53,59.56-50.18,75.26-69.75,10.3-12.84,18.99-27.43,22.39-37.58,1.89-5.64,2.15-13.16.55-15.6-4.08-6.23-15.46-4.01-28.79,5.62-26.35,19.03-50.35,55.1-75.59,113.63-4.5,10.44-4.78,11.2-4.06,11.2.22,0,4.83-3.38,10.23-7.51ZM1681.9,281.72c-1.17-.43-2.19-.78-2.26-.79-.07,0-.85-1-1.73-2.21-5.31-7.34,3.04-16.76,11.16-12.58,3.25,1.67,4.79,4.11,4.79,7.56,0,1.72-.37,3.32-1.01,4.36-2.09,3.43-7.05,5.09-10.95,3.66h0ZM1402.85,209.24c-.48-.53-.88-1.32-.88-1.75s1.85-3.18,4.12-6.12c30.76-39.85,34.28-44.89,35.99-51.48,1.67-6.43.97-8.5-5.46-15.93-2.44-2.82-4.72-4.9-6.11-5.57-1.22-.59-8.92-3.13-17.11-5.65-22.69-6.99-27.34-8.64-45.72-16.21-25.49-10.49-30.51-13.37-33.65-19.34l-1.44-2.72v-17.81c0-15.96-.1-18.03-.95-19.92-2-4.43-4.76-5.96-15.42-8.53-11.2-2.7-40.12-8.4-56.47-11.13-48.77-8.14-90.5-14.74-101.29-16.02-9.86-1.17-20.23-1.32-21.45-.31-.48.4-2.71,3.51-4.94,6.91-5.15,7.83-11.31,16.07-14.48,19.39-5.15,5.37-8.09,6.17-19.03,5.21-3.75-.33-15.44-.85-25.97-1.15-10.53-.3-25.48-.9-33.23-1.33-25.46-1.4-35.29-.88-40.91,2.18-4.38,2.38-7.29,8.02-9.56,18.51-1.42,6.56-1.78,7.25-3.78,7.25-4.17,0-6.57-6.58-5.07-13.85,1.56-7.53,6.51-15.28,11.71-18.33,2.67-1.56,9.66-3.44,12.8-3.44,5.11,0,5.31-.15,6.65-5.13,2.15-8.01,4.9-10.73,12.01-11.9,5.14-.84,31.65-.64,38.79.3,7.75,1.02,18.1,3.18,21.76,4.55,2.97,1.11,6.13,3.8,7.44,6.34.44.85,1.1,3.05,1.46,4.89l.66,3.34,6.11-.13c7.62-.16,9.67-.88,13.19-4.6,3.53-3.73,5.64-7.11,10.2-16.33,6.09-12.29,7.94-13.56,19.67-13.42,9.59.11,18.65,1.43,57.69,8.43,8.77,1.57,25.16,4.42,36.42,6.33,31.45,5.33,84.5,15.51,91.96,17.65,9.21,2.64,13.92,7.99,15.81,17.93.82,4.31.78,11.18-.13,27.2-.28,4.77-.19,5.5.79,7.06,1.48,2.35,13.78,10.22,15.97,10.22.3,0,.55-.96.55-2.14,0-2.66,1.21-5.63,3.07-7.58,3.45-3.6,11.66-3.86,29.14-.92,23.14,3.89,35.09,8.72,39.41,15.92,2.81,4.69,3.15,7.75,2.12,18.97-.08.84.93,1.81,4.15,4.01,3.27,2.23,4.9,3.81,7.05,6.86,5.25,7.44,5.71,8.61,5.67,14.33-.09,12.09-5.25,21.83-19.3,36.37-3.7,3.83-8.68,9.37-11.05,12.31s-6.75,8.02-9.73,11.3c-4.42,4.86-5.68,5.95-6.89,5.95-.81,0-1.87-.44-2.36-.97h0ZM1423.73,112.22c-1.82-7.43-3.94-8.93-16.66-11.78-10.88-2.44-33.1-5.58-34.29-4.85-.28.17-.8,1.18-1.15,2.23-.51,1.56-.5,2,.09,2.38,1.53.98,11.8,4.75,19.39,7.1,4.36,1.35,13.67,4.32,20.69,6.59s12.84,3.92,12.95,3.67c.1-.25-.35-2.66-1.01-5.35h0ZM1070.72,32.09c-3.36-1.12-7.91-2.4-10.1-2.85-8.21-1.67-26.26-3.53-34.31-3.53-4.49,0-5.2.52-5.26,3.88l-.04,2.23,4.85.4c11.57.96,31.04,1.86,40.61,1.87l10.37.02-6.11-2.03h0Z"/>
  </g>
</svg>